<mxfile host="app.diagrams.net" agent="Mozilla/5.0 (Windows NT 10.0; Win64; x64) AppleWebKit/537.36 (KHTML, like Gecko) Chrome/137.0.0.0 Safari/537.36" version="27.1.4">
  <diagram name="Page-1" id="-7-DTyx-P7m3kdMr6AFv">
    <mxGraphModel dx="1224" dy="1102" grid="1" gridSize="10" guides="1" tooltips="1" connect="1" arrows="1" fold="1" page="1" pageScale="1" pageWidth="850" pageHeight="1100" math="0" shadow="0">
      <root>
        <mxCell id="0" />
        <mxCell id="1" parent="0" />
        <mxCell id="gIJMnSBR-YI_2spg7YhF-5" style="edgeStyle=orthogonalEdgeStyle;rounded=0;orthogonalLoop=1;jettySize=auto;html=1;" edge="1" parent="1" source="gIJMnSBR-YI_2spg7YhF-1">
          <mxGeometry relative="1" as="geometry">
            <mxPoint x="660" y="280" as="targetPoint" />
          </mxGeometry>
        </mxCell>
        <mxCell id="gIJMnSBR-YI_2spg7YhF-6" style="edgeStyle=orthogonalEdgeStyle;rounded=0;orthogonalLoop=1;jettySize=auto;html=1;" edge="1" parent="1" source="gIJMnSBR-YI_2spg7YhF-1" target="gIJMnSBR-YI_2spg7YhF-2">
          <mxGeometry relative="1" as="geometry" />
        </mxCell>
        <mxCell id="gIJMnSBR-YI_2spg7YhF-7" style="edgeStyle=orthogonalEdgeStyle;rounded=0;orthogonalLoop=1;jettySize=auto;html=1;entryX=0.45;entryY=0.033;entryDx=0;entryDy=0;entryPerimeter=0;" edge="1" parent="1">
          <mxGeometry relative="1" as="geometry">
            <mxPoint x="419.5" y="220" as="sourcePoint" />
            <mxPoint x="419.5" y="531.98" as="targetPoint" />
            <Array as="points">
              <mxPoint x="419.5" y="300" />
              <mxPoint x="419.5" y="300" />
            </Array>
          </mxGeometry>
        </mxCell>
        <mxCell id="gIJMnSBR-YI_2spg7YhF-1" value="CHANGE STATE" style="rounded=1;whiteSpace=wrap;html=1;fillColor=#d5e8d4;strokeColor=#82b366;" vertex="1" parent="1">
          <mxGeometry x="365" y="160" width="120" height="60" as="geometry" />
        </mxCell>
        <mxCell id="gIJMnSBR-YI_2spg7YhF-8" style="edgeStyle=orthogonalEdgeStyle;rounded=0;orthogonalLoop=1;jettySize=auto;html=1;" edge="1" parent="1" source="gIJMnSBR-YI_2spg7YhF-2" target="gIJMnSBR-YI_2spg7YhF-20">
          <mxGeometry relative="1" as="geometry">
            <mxPoint x="60" y="400" as="targetPoint" />
          </mxGeometry>
        </mxCell>
        <mxCell id="gIJMnSBR-YI_2spg7YhF-10" style="edgeStyle=orthogonalEdgeStyle;rounded=0;orthogonalLoop=1;jettySize=auto;html=1;" edge="1" parent="1" source="gIJMnSBR-YI_2spg7YhF-2" target="gIJMnSBR-YI_2spg7YhF-21">
          <mxGeometry relative="1" as="geometry">
            <mxPoint x="300" y="400" as="targetPoint" />
          </mxGeometry>
        </mxCell>
        <mxCell id="gIJMnSBR-YI_2spg7YhF-25" style="edgeStyle=orthogonalEdgeStyle;rounded=0;orthogonalLoop=1;jettySize=auto;html=1;entryX=0;entryY=0.5;entryDx=0;entryDy=0;" edge="1" parent="1" source="gIJMnSBR-YI_2spg7YhF-2" target="gIJMnSBR-YI_2spg7YhF-24">
          <mxGeometry relative="1" as="geometry">
            <mxPoint x="180" y="560" as="targetPoint" />
            <Array as="points">
              <mxPoint x="180" y="560" />
            </Array>
          </mxGeometry>
        </mxCell>
        <mxCell id="gIJMnSBR-YI_2spg7YhF-2" value="HEAT" style="rounded=1;whiteSpace=wrap;html=1;fillColor=#f8cecc;strokeColor=#b85450;" vertex="1" parent="1">
          <mxGeometry x="120" y="270" width="120" height="60" as="geometry" />
        </mxCell>
        <mxCell id="gIJMnSBR-YI_2spg7YhF-14" style="edgeStyle=orthogonalEdgeStyle;rounded=0;orthogonalLoop=1;jettySize=auto;html=1;" edge="1" parent="1" source="gIJMnSBR-YI_2spg7YhF-16" target="gIJMnSBR-YI_2spg7YhF-22">
          <mxGeometry relative="1" as="geometry">
            <mxPoint x="539.8" y="400" as="targetPoint" />
          </mxGeometry>
        </mxCell>
        <mxCell id="gIJMnSBR-YI_2spg7YhF-15" style="edgeStyle=orthogonalEdgeStyle;rounded=0;orthogonalLoop=1;jettySize=auto;html=1;" edge="1" parent="1" source="gIJMnSBR-YI_2spg7YhF-16" target="gIJMnSBR-YI_2spg7YhF-23">
          <mxGeometry relative="1" as="geometry">
            <mxPoint x="779.8" y="400" as="targetPoint" />
          </mxGeometry>
        </mxCell>
        <mxCell id="gIJMnSBR-YI_2spg7YhF-26" style="edgeStyle=orthogonalEdgeStyle;rounded=0;orthogonalLoop=1;jettySize=auto;html=1;entryX=1;entryY=0.5;entryDx=0;entryDy=0;" edge="1" parent="1" source="gIJMnSBR-YI_2spg7YhF-16" target="gIJMnSBR-YI_2spg7YhF-24">
          <mxGeometry relative="1" as="geometry">
            <mxPoint x="659.75" y="560" as="targetPoint" />
            <Array as="points">
              <mxPoint x="660" y="560" />
            </Array>
          </mxGeometry>
        </mxCell>
        <mxCell id="gIJMnSBR-YI_2spg7YhF-16" value="COOL" style="rounded=1;whiteSpace=wrap;html=1;fillColor=#dae8fc;strokeColor=#6c8ebf;" vertex="1" parent="1">
          <mxGeometry x="599.75" y="280" width="120" height="60" as="geometry" />
        </mxCell>
        <mxCell id="gIJMnSBR-YI_2spg7YhF-20" value="INCREASE TEMP" style="ellipse;whiteSpace=wrap;html=1;fillColor=#f8cecc;strokeColor=#b85450;" vertex="1" parent="1">
          <mxGeometry y="360" width="120" height="80" as="geometry" />
        </mxCell>
        <mxCell id="gIJMnSBR-YI_2spg7YhF-21" value="LOWER TEMP" style="ellipse;whiteSpace=wrap;html=1;fillColor=#dae8fc;strokeColor=#6c8ebf;" vertex="1" parent="1">
          <mxGeometry x="240" y="360" width="120" height="80" as="geometry" />
        </mxCell>
        <mxCell id="gIJMnSBR-YI_2spg7YhF-22" value="INCREASE TEMP" style="ellipse;whiteSpace=wrap;html=1;fillColor=#f8cecc;strokeColor=#b85450;" vertex="1" parent="1">
          <mxGeometry x="479.79999999999995" y="360" width="120" height="80" as="geometry" />
        </mxCell>
        <mxCell id="gIJMnSBR-YI_2spg7YhF-23" value="LOWER TEMP" style="ellipse;whiteSpace=wrap;html=1;fillColor=#dae8fc;strokeColor=#6c8ebf;" vertex="1" parent="1">
          <mxGeometry x="719.8" y="360" width="120" height="80" as="geometry" />
        </mxCell>
        <mxCell id="gIJMnSBR-YI_2spg7YhF-24" value="OFF" style="rounded=1;whiteSpace=wrap;html=1;fillColor=#e1d5e7;strokeColor=#9673a6;" vertex="1" parent="1">
          <mxGeometry x="360" y="530" width="120" height="60" as="geometry" />
        </mxCell>
      </root>
    </mxGraphModel>
  </diagram>
</mxfile>
